<mxfile host="app.diagrams.net" agent="Mozilla/5.0 (Windows NT 10.0; Win64; x64) AppleWebKit/537.36 (KHTML, like Gecko) Chrome/129.0.0.0 Safari/537.36" version="24.7.17">
  <diagram id="X6gpzHaCga8me7w1A4jo" name="Page-1">
    <mxGraphModel dx="1434" dy="746" grid="1" gridSize="10" guides="1" tooltips="1" connect="1" arrows="1" fold="1" page="1" pageScale="1" pageWidth="850" pageHeight="1100" math="0" shadow="0">
      <root>
        <mxCell id="0" />
        <mxCell id="1" parent="0" />
        <mxCell id="1yGqdQfegs-IUtdJKaXs-1" value="" style="edgeStyle=orthogonalEdgeStyle;rounded=0;orthogonalLoop=1;jettySize=auto;html=1;" edge="1" parent="1" source="1yGqdQfegs-IUtdJKaXs-2" target="1yGqdQfegs-IUtdJKaXs-4">
          <mxGeometry relative="1" as="geometry" />
        </mxCell>
        <mxCell id="1yGqdQfegs-IUtdJKaXs-2" value="&lt;div&gt;Preprocessed&lt;/div&gt;Dataset" style="shape=parallelogram;perimeter=parallelogramPerimeter;whiteSpace=wrap;html=1;fixedSize=1;fillColor=#d5e8d4;strokeColor=#82b366;" vertex="1" parent="1">
          <mxGeometry x="340" y="20" width="120" height="60" as="geometry" />
        </mxCell>
        <mxCell id="1yGqdQfegs-IUtdJKaXs-3" value="" style="edgeStyle=orthogonalEdgeStyle;rounded=0;orthogonalLoop=1;jettySize=auto;html=1;" edge="1" parent="1" source="1yGqdQfegs-IUtdJKaXs-4" target="1yGqdQfegs-IUtdJKaXs-17">
          <mxGeometry relative="1" as="geometry" />
        </mxCell>
        <mxCell id="1yGqdQfegs-IUtdJKaXs-4" value="Make feature&lt;div&gt;vectors&lt;/div&gt;" style="rounded=0;whiteSpace=wrap;html=1;fillColor=#dae8fc;strokeColor=#6c8ebf;" vertex="1" parent="1">
          <mxGeometry x="340" y="110" width="120" height="60" as="geometry" />
        </mxCell>
        <mxCell id="1yGqdQfegs-IUtdJKaXs-5" style="edgeStyle=orthogonalEdgeStyle;rounded=0;orthogonalLoop=1;jettySize=auto;html=1;" edge="1" parent="1" source="1yGqdQfegs-IUtdJKaXs-6" target="1yGqdQfegs-IUtdJKaXs-8">
          <mxGeometry relative="1" as="geometry" />
        </mxCell>
        <mxCell id="1yGqdQfegs-IUtdJKaXs-6" value="Feature vectors" style="shape=parallelogram;perimeter=parallelogramPerimeter;whiteSpace=wrap;html=1;fixedSize=1;fillColor=#ffe6cc;strokeColor=#d79b00;" vertex="1" parent="1">
          <mxGeometry x="340" y="290" width="120" height="60" as="geometry" />
        </mxCell>
        <mxCell id="1yGqdQfegs-IUtdJKaXs-7" style="edgeStyle=orthogonalEdgeStyle;rounded=0;orthogonalLoop=1;jettySize=auto;html=1;" edge="1" parent="1" source="1yGqdQfegs-IUtdJKaXs-8" target="1yGqdQfegs-IUtdJKaXs-10">
          <mxGeometry relative="1" as="geometry" />
        </mxCell>
        <mxCell id="1yGqdQfegs-IUtdJKaXs-8" value="Permute C(alpha) and penalty from a range:&lt;div&gt;C/alpha: 10^[-4, ... , 4]&lt;/div&gt;&lt;div&gt;penalty: [‘l2’, ‘l1’, ‘elasticnet’, None]&lt;/div&gt;" style="rounded=0;whiteSpace=wrap;html=1;fillColor=#f8cecc;strokeColor=#b85450;" vertex="1" parent="1">
          <mxGeometry x="220" y="380" width="360" height="110" as="geometry" />
        </mxCell>
        <mxCell id="1yGqdQfegs-IUtdJKaXs-9" value="" style="edgeStyle=orthogonalEdgeStyle;rounded=0;orthogonalLoop=1;jettySize=auto;html=1;" edge="1" parent="1" source="1yGqdQfegs-IUtdJKaXs-10" target="1yGqdQfegs-IUtdJKaXs-22">
          <mxGeometry relative="1" as="geometry" />
        </mxCell>
        <mxCell id="1yGqdQfegs-IUtdJKaXs-10" value="Initialize&lt;div&gt;SGDClassifier with&amp;nbsp;‘modified_huber’ loss&lt;/div&gt;" style="rounded=0;whiteSpace=wrap;html=1;fillColor=#dae8fc;strokeColor=#6c8ebf;" vertex="1" parent="1">
          <mxGeometry x="315" y="520" width="170" height="90" as="geometry" />
        </mxCell>
        <mxCell id="1yGqdQfegs-IUtdJKaXs-11" value="" style="edgeStyle=orthogonalEdgeStyle;rounded=0;orthogonalLoop=1;jettySize=auto;html=1;" edge="1" parent="1" source="1yGqdQfegs-IUtdJKaXs-12" target="1yGqdQfegs-IUtdJKaXs-14">
          <mxGeometry relative="1" as="geometry" />
        </mxCell>
        <mxCell id="1yGqdQfegs-IUtdJKaXs-12" value="Best Model" style="shape=parallelogram;perimeter=parallelogramPerimeter;whiteSpace=wrap;html=1;fixedSize=1;fillColor=#d5e8d4;strokeColor=#82b366;" vertex="1" parent="1">
          <mxGeometry x="340" y="730" width="120" height="60" as="geometry" />
        </mxCell>
        <mxCell id="1yGqdQfegs-IUtdJKaXs-13" value="" style="edgeStyle=orthogonalEdgeStyle;rounded=0;orthogonalLoop=1;jettySize=auto;html=1;" edge="1" parent="1" source="1yGqdQfegs-IUtdJKaXs-14" target="1yGqdQfegs-IUtdJKaXs-25">
          <mxGeometry relative="1" as="geometry" />
        </mxCell>
        <mxCell id="1yGqdQfegs-IUtdJKaXs-14" value="Validation" style="rounded=0;whiteSpace=wrap;html=1;fillColor=#f8cecc;strokeColor=#b85450;" vertex="1" parent="1">
          <mxGeometry x="340" y="820" width="120" height="60" as="geometry" />
        </mxCell>
        <mxCell id="1yGqdQfegs-IUtdJKaXs-15" value="" style="edgeStyle=orthogonalEdgeStyle;rounded=0;orthogonalLoop=1;jettySize=auto;html=1;" edge="1" parent="1" source="1yGqdQfegs-IUtdJKaXs-17" target="1yGqdQfegs-IUtdJKaXs-6">
          <mxGeometry relative="1" as="geometry" />
        </mxCell>
        <mxCell id="1yGqdQfegs-IUtdJKaXs-16" style="edgeStyle=orthogonalEdgeStyle;rounded=0;orthogonalLoop=1;jettySize=auto;html=1;" edge="1" parent="1" source="1yGqdQfegs-IUtdJKaXs-17" target="1yGqdQfegs-IUtdJKaXs-19">
          <mxGeometry relative="1" as="geometry" />
        </mxCell>
        <mxCell id="1yGqdQfegs-IUtdJKaXs-17" value="Test/Val split" style="rounded=0;whiteSpace=wrap;html=1;fillColor=#dae8fc;strokeColor=#6c8ebf;" vertex="1" parent="1">
          <mxGeometry x="340" y="200" width="120" height="60" as="geometry" />
        </mxCell>
        <mxCell id="1yGqdQfegs-IUtdJKaXs-18" style="edgeStyle=orthogonalEdgeStyle;rounded=0;orthogonalLoop=1;jettySize=auto;html=1;" edge="1" parent="1" source="1yGqdQfegs-IUtdJKaXs-19" target="1yGqdQfegs-IUtdJKaXs-14">
          <mxGeometry relative="1" as="geometry">
            <Array as="points">
              <mxPoint x="740" y="850" />
            </Array>
          </mxGeometry>
        </mxCell>
        <mxCell id="1yGqdQfegs-IUtdJKaXs-19" value="Feature vectors&lt;div&gt;(validation)&lt;/div&gt;" style="shape=parallelogram;perimeter=parallelogramPerimeter;whiteSpace=wrap;html=1;fixedSize=1;fillColor=#ffe6cc;strokeColor=#d79b00;" vertex="1" parent="1">
          <mxGeometry x="680" y="330" width="120" height="60" as="geometry" />
        </mxCell>
        <mxCell id="1yGqdQfegs-IUtdJKaXs-20" style="edgeStyle=orthogonalEdgeStyle;rounded=0;orthogonalLoop=1;jettySize=auto;html=1;" edge="1" parent="1" source="1yGqdQfegs-IUtdJKaXs-22" target="1yGqdQfegs-IUtdJKaXs-8">
          <mxGeometry relative="1" as="geometry">
            <Array as="points">
              <mxPoint x="650" y="670" />
              <mxPoint x="650" y="440" />
            </Array>
          </mxGeometry>
        </mxCell>
        <mxCell id="1yGqdQfegs-IUtdJKaXs-21" value="" style="edgeStyle=orthogonalEdgeStyle;rounded=0;orthogonalLoop=1;jettySize=auto;html=1;" edge="1" parent="1" source="1yGqdQfegs-IUtdJKaXs-22" target="1yGqdQfegs-IUtdJKaXs-24">
          <mxGeometry relative="1" as="geometry" />
        </mxCell>
        <mxCell id="1yGqdQfegs-IUtdJKaXs-22" value="Train with 10-fold&lt;div&gt;cross validation&lt;/div&gt;" style="rounded=0;whiteSpace=wrap;html=1;fillColor=#dae8fc;strokeColor=#6c8ebf;" vertex="1" parent="1">
          <mxGeometry x="340" y="640" width="120" height="60" as="geometry" />
        </mxCell>
        <mxCell id="1yGqdQfegs-IUtdJKaXs-23" style="edgeStyle=orthogonalEdgeStyle;rounded=0;orthogonalLoop=1;jettySize=auto;html=1;" edge="1" parent="1" source="1yGqdQfegs-IUtdJKaXs-24" target="1yGqdQfegs-IUtdJKaXs-12">
          <mxGeometry relative="1" as="geometry">
            <Array as="points">
              <mxPoint x="200" y="770" />
            </Array>
          </mxGeometry>
        </mxCell>
        <mxCell id="1yGqdQfegs-IUtdJKaXs-24" value="Model history&lt;div&gt;with hyperparameters&lt;/div&gt;" style="rounded=0;whiteSpace=wrap;html=1;shape=parallelogram;perimeter=parallelogramPerimeter;fixedSize=1;fillColor=#d5e8d4;strokeColor=#82b366;" vertex="1" parent="1">
          <mxGeometry x="120" y="625" width="160" height="90" as="geometry" />
        </mxCell>
        <mxCell id="1yGqdQfegs-IUtdJKaXs-25" value="&lt;span style=&quot;color: rgb(0, 0, 0); font-family: Helvetica; font-size: 12px; font-style: normal; font-variant-ligatures: normal; font-variant-caps: normal; font-weight: 400; letter-spacing: normal; orphans: 2; text-align: center; text-indent: 0px; text-transform: none; widows: 2; word-spacing: 0px; -webkit-text-stroke-width: 0px; white-space: normal; text-decoration-thickness: initial; text-decoration-style: initial; text-decoration-color: initial; float: none; display: inline !important;&quot;&gt;Run inference&lt;/span&gt;&lt;div style=&quot;forced-color-adjust: none; color: rgb(0, 0, 0); font-family: Helvetica; font-size: 12px; font-style: normal; font-variant-ligatures: normal; font-variant-caps: normal; font-weight: 400; letter-spacing: normal; orphans: 2; text-align: center; text-indent: 0px; text-transform: none; widows: 2; word-spacing: 0px; -webkit-text-stroke-width: 0px; white-space: normal; text-decoration-thickness: initial; text-decoration-style: initial; text-decoration-color: initial;&quot;&gt;on holdout&lt;/div&gt;&lt;div style=&quot;forced-color-adjust: none; color: rgb(0, 0, 0); font-family: Helvetica; font-size: 12px; font-style: normal; font-variant-ligatures: normal; font-variant-caps: normal; font-weight: 400; letter-spacing: normal; orphans: 2; text-align: center; text-indent: 0px; text-transform: none; widows: 2; word-spacing: 0px; -webkit-text-stroke-width: 0px; white-space: normal; text-decoration-thickness: initial; text-decoration-style: initial; text-decoration-color: initial;&quot;&gt;dataset&lt;/div&gt;" style="rounded=1;whiteSpace=wrap;html=1;fillColor=#d5e8d4;strokeColor=#82b366;" vertex="1" parent="1">
          <mxGeometry x="340" y="910" width="120" height="60" as="geometry" />
        </mxCell>
      </root>
    </mxGraphModel>
  </diagram>
</mxfile>
